<?xml version="1.0" encoding="UTF-8"?>
<svg xmlns="http://www.w3.org/2000/svg" xmlns:xlink="http://www.w3.org/1999/xlink" width="95px" height="95px" viewBox="0 0 95 95" version="1.1">
<g id="surface1">
<path style=" stroke:none;fill-rule:nonzero;fill:rgb(0%,0%,0%);fill-opacity:1;" d="M 35.671875 11.667969 C 39.171875 9.644531 42.609375 7.683594 46.019531 5.679688 C 47.1875 4.992188 48.253906 4.929688 49.464844 5.625 C 60.1875 11.734375 70.894531 17.871094 81.6875 23.859375 C 84.027344 25.15625 84.980469 26.570312 84.902344 29.378906 C 84.679688 37.644531 84.828125 45.917969 84.898438 54.191406 C 84.9375 58.738281 85.101562 63.285156 85.238281 67.832031 C 85.277344 69.109375 84.832031 69.941406 83.65625 70.59375 C 72.175781 76.96875 60.722656 83.394531 49.273438 89.828125 C 48.292969 90.378906 47.433594 90.53125 46.394531 89.945312 C 34.949219 83.5 23.5 77.0625 12.015625 70.6875 C 10.65625 69.933594 10.140625 68.949219 10.261719 67.535156 C 10.429688 65.558594 10.390625 63.582031 10.414062 61.605469 C 10.503906 53.214844 10.574219 44.828125 10.695312 36.441406 C 10.738281 33.28125 11.035156 30.121094 10.65625 26.960938 C 10.527344 25.902344 11.191406 25.382812 11.988281 24.9375 C 16.40625 22.464844 20.828125 19.992188 25.246094 17.519531 C 28.695312 15.585938 32.144531 13.648438 35.671875 11.667969 M 50.21875 22.328125 C 49.433594 20.941406 48.652344 19.558594 47.738281 17.9375 C 39.5 32.851562 31.421875 47.472656 23.289062 62.1875 C 39.617188 62.1875 55.75 62.1875 72.179688 62.1875 C 64.929688 48.703125 57.554688 35.625 50.21875 22.328125 M 21.699219 58.953125 C 21.910156 59.484375 21.921875 60.101562 22.339844 60.609375 C 23.144531 59.835938 23.410156 59.050781 22.90625 58.035156 C 22.464844 57.152344 22.117188 56.222656 21.757812 55.300781 C 21.585938 54.863281 21.355469 54.316406 21.945312 54.054688 C 22.582031 53.769531 22.863281 54.308594 23.078125 54.785156 C 23.441406 55.601562 23.773438 56.433594 24.144531 57.316406 C 25.78125 55.394531 25.804688 55.132812 24.613281 53.238281 C 24.210938 52.601562 23.8125 51.96875 23.441406 51.3125 C 23.261719 50.996094 23.167969 50.609375 23.542969 50.355469 C 23.933594 50.097656 24.324219 50.222656 24.59375 50.570312 C 24.90625 50.976562 25.164062 51.425781 25.460938 51.84375 C 25.785156 52.304688 25.871094 52.964844 26.601562 53.214844 C 27.238281 52.074219 27.867188 50.9375 28.503906 49.808594 C 28.773438 49.332031 28.574219 48.980469 28.226562 48.660156 C 27.707031 48.175781 27.164062 47.714844 26.671875 47.207031 C 26.394531 46.925781 26.113281 46.542969 26.433594 46.15625 C 26.773438 45.742188 27.238281 45.882812 27.617188 46.132812 C 27.90625 46.324219 28.144531 46.601562 28.390625 46.855469 C 28.730469 47.207031 28.890625 47.777344 29.585938 47.78125 C 30.128906 46.761719 30.855469 45.824219 31.210938 44.714844 C 30.984375 44.320312 30.609375 44.242188 30.324219 44.039062 C 29.921875 43.753906 29.527344 43.40625 29.816406 42.871094 C 30.089844 42.359375 30.617188 42.507812 30.960938 42.75 C 31.90625 43.410156 32.359375 42.984375 32.742188 42.113281 C 32.964844 41.609375 33.269531 41.140625 33.5625 40.667969 C 33.925781 40.078125 33.828125 39.652344 33.1875 39.332031 C 32.554688 39.011719 31.929688 38.667969 31.332031 38.28125 C 30.976562 38.054688 30.78125 37.675781 31.050781 37.261719 C 31.292969 36.886719 31.675781 36.953125 32.007812 37.109375 C 32.402344 37.289062 32.773438 37.519531 33.148438 37.742188 C 34.628906 38.609375 34.625 38.609375 35.449219 37.179688 C 35.6875 36.769531 35.933594 36.363281 36.167969 35.953125 C 36.449219 35.460938 36.613281 35.019531 35.910156 34.703125 C 35.539062 34.535156 35.226562 34.222656 35.433594 33.757812 C 35.644531 33.292969 36.09375 33.421875 36.480469 33.4375 C 36.847656 33.449219 37.273438 33.78125 37.558594 33.308594 C 38.128906 32.375 38.792969 31.484375 39.058594 30.40625 C 38.699219 29.957031 38.242188 30.054688 37.820312 30.011719 C 37.234375 29.949219 36.644531 29.882812 36.058594 29.796875 C 35.636719 29.730469 35.253906 29.527344 35.28125 29.054688 C 35.3125 28.476562 35.800781 28.398438 36.25 28.433594 C 37.273438 28.511719 38.292969 28.621094 39.3125 28.738281 C 39.675781 28.777344 40.066406 28.847656 40.273438 28.476562 C 40.828125 27.46875 41.347656 26.441406 42.023438 25.160156 C 40.261719 25.460938 38.871094 25.722656 37.472656 25.921875 C 36.941406 25.996094 36.234375 26.058594 36.109375 25.335938 C 35.972656 24.546875 36.722656 24.523438 37.238281 24.4375 C 38.796875 24.179688 40.363281 23.976562 41.925781 23.746094 C 43.125 23.570312 43.84375 22.707031 43.925781 21.292969 C 42.90625 21.496094 41.910156 21.753906 40.898438 21.878906 C 40.292969 21.949219 39.351562 22.273438 39.242188 21.320312 C 39.152344 20.511719 40.0625 20.464844 40.660156 20.40625 C 41.726562 20.296875 42.761719 20.003906 43.816406 19.898438 C 45.265625 19.753906 45.804688 18.847656 46.199219 17.457031 C 34.890625 20.710938 23.609375 23.515625 12.402344 26.925781 C 13.003906 28.957031 13.546875 30.769531 14.074219 32.585938 C 16.601562 41.3125 19.125 50.042969 21.699219 58.953125 M 59.367188 28.601562 C 58.335938 29.230469 57.042969 28.914062 55.992188 29.476562 C 56.753906 31.847656 56.921875 31.949219 59.21875 31.511719 C 59.335938 31.488281 59.453125 31.46875 59.570312 31.453125 C 60.019531 31.390625 60.507812 31.347656 60.667969 31.878906 C 60.851562 32.492188 60.328125 32.65625 59.898438 32.875 C 59.347656 33.15625 58.609375 32.882812 58.109375 33.507812 C 58.484375 34.175781 58.460938 35.21875 59.699219 34.984375 C 60.121094 34.902344 60.523438 34.921875 60.734375 35.332031 C 60.976562 35.804688 60.570312 36.007812 60.28125 36.289062 C 59.457031 37.105469 60.417969 37.625 60.6875 38.230469 C 60.957031 38.832031 61.453125 38.632812 61.882812 38.347656 C 62.542969 37.914062 63.160156 37.40625 63.941406 37.183594 C 64.28125 37.089844 64.65625 36.925781 64.878906 37.355469 C 65.097656 37.78125 64.929688 38.128906 64.546875 38.367188 C 63.941406 38.742188 63.347656 39.144531 62.714844 39.460938 C 61.820312 39.910156 61.734375 40.492188 62.292969 41.253906 C 62.5 41.53125 62.582031 41.914062 63.027344 42.078125 C 63.261719 41.960938 63.535156 41.8125 63.816406 41.679688 C 64.417969 41.402344 65.15625 40.589844 65.65625 41.433594 C 66.238281 42.417969 65.109375 42.648438 64.492188 42.929688 C 63.703125 43.289062 63.609375 43.746094 64.042969 44.410156 C 64.277344 44.765625 64.390625 45.214844 64.890625 45.4375 C 65.058594 45.324219 65.265625 45.214844 65.433594 45.058594 C 65.933594 44.609375 66.398438 44.121094 66.910156 43.683594 C 67.3125 43.335938 67.84375 43.035156 68.277344 43.523438 C 68.695312 43.992188 68.238281 44.414062 67.914062 44.738281 C 67.464844 45.183594 66.953125 45.566406 66.480469 45.984375 C 65.359375 46.980469 65.382812 47.476562 66.660156 48.5625 C 66.960938 48.207031 67.242188 47.828125 67.570312 47.496094 C 67.910156 47.152344 68.261719 46.53125 68.824219 46.976562 C 69.390625 47.425781 68.988281 47.976562 68.679688 48.449219 C 68.59375 48.582031 68.496094 48.707031 68.394531 48.828125 C 67.132812 50.375 67.140625 50.597656 68.597656 52.234375 C 68.84375 51.65625 69.085938 51.121094 69.300781 50.578125 C 69.535156 49.992188 69.710938 49.378906 69.972656 48.804688 C 70.195312 48.316406 70.429688 47.640625 71.144531 47.933594 C 71.816406 48.210938 71.46875 48.816406 71.300781 49.273438 C 70.90625 50.351562 70.480469 51.414062 70.050781 52.480469 C 69.351562 54.210938 69.546875 55.105469 71.027344 56.59375 C 71.6875 55.425781 71.863281 54.121094 72.273438 52.90625 C 72.5625 52.046875 72.75 51.152344 73.023438 50.289062 C 73.144531 49.910156 73.378906 49.507812 73.878906 49.671875 C 74.328125 49.816406 74.394531 50.242188 74.335938 50.65625 C 74.285156 51.003906 74.179688 51.347656 74.082031 51.691406 C 73.550781 53.554688 73.132812 55.460938 72.4375 57.261719 C 71.890625 58.675781 72.300781 59.675781 73.265625 60.722656 C 73.394531 60.410156 73.53125 60.140625 73.617188 59.851562 C 76.683594 49.21875 79.738281 38.582031 82.832031 27.957031 C 83.117188 26.972656 82.832031 26.660156 81.910156 26.410156 C 72.1875 23.761719 62.476562 21.0625 52.75 18.417969 C 51.65625 18.121094 50.578125 17.644531 49.398438 17.640625 C 49.6875 18.984375 50.5 19.558594 51.746094 19.710938 C 52.878906 19.851562 54 20.113281 55.121094 20.355469 C 55.816406 20.503906 56.925781 20.472656 56.742188 21.445312 C 56.578125 22.324219 55.546875 21.914062 54.894531 21.835938 C 53.695312 21.691406 52.566406 21.15625 51.308594 21.136719 C 52.175781 23.398438 52.265625 23.460938 54.449219 23.441406 C 54.964844 23.4375 55.480469 23.414062 55.992188 23.457031 C 56.496094 23.503906 57.152344 23.539062 57.148438 24.207031 C 57.140625 24.871094 56.46875 24.863281 55.976562 24.957031 C 55.15625 25.113281 54.351562 24.617188 53.464844 24.882812 C 53.523438 25.726562 54.113281 26.3125 54.429688 27.015625 C 54.792969 27.824219 55.363281 28.078125 56.253906 27.84375 C 57.050781 27.632812 57.882812 27.53125 58.707031 27.484375 C 59.320312 27.445312 59.867188 27.628906 59.367188 28.601562 M 50.9375 85.257812 C 57.722656 78.167969 64.609375 71.175781 71.25 63.820312 C 70.457031 63.601562 69.992188 63.828125 69.578125 64.257812 C 68.945312 64.914062 68.28125 65.535156 67.660156 66.203125 C 66.960938 66.953125 66.3125 67.753906 65.605469 68.5 C 65.277344 68.84375 64.828125 69.179688 64.375 68.726562 C 63.96875 68.320312 64.28125 67.921875 64.570312 67.582031 C 64.800781 67.308594 65.054688 67.058594 65.289062 66.792969 C 66.148438 65.832031 67.003906 64.875 67.941406 63.828125 C 66.125 63.550781 64.613281 63.484375 63.652344 65.3125 C 63.183594 66.203125 62.519531 67.03125 61.730469 67.707031 C 61.382812 68.007812 60.976562 68.425781 60.5 67.949219 C 60.085938 67.539062 60.417969 67.136719 60.679688 66.792969 C 61.035156 66.320312 61.457031 65.894531 61.800781 65.414062 C 62.171875 64.902344 62.753906 64.507812 62.875 63.707031 C 62.296875 63.707031 61.820312 63.757812 61.355469 63.695312 C 60.183594 63.539062 59.402344 63.929688 58.941406 65.074219 C 58.660156 65.761719 58.191406 66.375 57.761719 66.992188 C 57.457031 67.433594 56.988281 67.816406 56.464844 67.433594 C 55.953125 67.0625 56.316406 66.558594 56.554688 66.167969 C 57.019531 65.40625 57.632812 64.730469 57.90625 63.832031 C 55.523438 63.488281 55.523438 63.492188 54.644531 65.457031 C 54.515625 65.746094 54.382812 66.039062 54.214844 66.300781 C 53.988281 66.65625 53.671875 66.933594 53.230469 66.71875 C 52.769531 66.492188 52.882812 66.070312 52.992188 65.679688 C 53.160156 65.054688 53.722656 64.550781 53.605469 63.707031 C 52.371094 63.933594 50.710938 62.894531 50.371094 65.132812 C 50.332031 65.398438 50.023438 65.5625 49.707031 65.511719 C 49.449219 65.46875 49.21875 65.28125 49.222656 65.054688 C 49.25 63.285156 47.972656 63.75 46.984375 63.710938 C 46.347656 63.6875 46.160156 63.972656 46.257812 64.597656 C 46.351562 65.21875 46.355469 65.855469 46.355469 66.484375 C 46.359375 66.824219 46.183594 67.113281 45.824219 67.179688 C 45.390625 67.257812 45.175781 66.976562 45.042969 66.617188 C 44.804688 65.964844 44.851562 65.285156 44.863281 64.617188 C 44.882812 63.640625 44.210938 63.664062 43.566406 63.71875 C 42.976562 63.769531 42.109375 63.371094 42.089844 64.523438 C 42.082031 65.019531 42.175781 65.683594 41.4375 65.691406 C 40.773438 65.699219 40.710938 65.054688 40.617188 64.554688 C 40.527344 64.089844 40.417969 63.707031 39.832031 63.714844 C 39.015625 63.726562 38.199219 63.71875 37.300781 63.71875 C 37.386719 64.5625 37.875 65.078125 38.089844 65.695312 C 38.320312 66.34375 39.117188 67.210938 38.175781 67.636719 C 37.253906 68.050781 37.054688 66.90625 36.71875 66.292969 C 36.394531 65.703125 36.167969 65.066406 35.890625 64.453125 C 35.722656 64.082031 35.515625 63.734375 35.042969 63.730469 C 34.15625 63.726562 33.273438 63.730469 32.269531 63.730469 C 32.546875 64.316406 32.746094 64.703125 32.914062 65.097656 C 33.046875 65.414062 33.039062 65.726562 32.714844 65.933594 C 32.402344 66.132812 32.089844 66.054688 31.84375 65.820312 C 31.621094 65.601562 31.425781 65.347656 31.253906 65.085938 C 30.242188 63.570312 29.765625 63.398438 27.820312 63.902344 C 27.820312 64.351562 28.195312 64.574219 28.449219 64.851562 C 29.460938 65.960938 30.511719 67.039062 31.515625 68.15625 C 31.839844 68.519531 32.359375 68.988281 31.859375 69.480469 C 31.316406 70.011719 30.855469 69.484375 30.453125 69.105469 C 30.253906 68.914062 30.074219 68.699219 29.886719 68.496094 C 28.601562 67.101562 27.316406 65.699219 26.023438 64.308594 C 25.652344 63.910156 25.25 63.546875 24.402344 64.003906 C 32.207031 72.25 39.910156 80.394531 47.476562 88.390625 C 48.660156 87.324219 49.738281 86.351562 50.9375 85.257812 M 61.347656 76.957031 C 60.441406 77.179688 59.132812 78.472656 59.425781 78.941406 C 60.050781 79.953125 59.257812 80.261719 58.671875 80.269531 C 57.289062 80.296875 56.742188 81.296875 55.945312 82.144531 C 56.414062 82.375 57.039062 82.390625 56.921875 83.050781 C 56.816406 83.644531 56.300781 83.902344 55.796875 83.972656 C 53.902344 84.226562 52.632812 85.355469 51.480469 86.941406 C 62.039062 81.023438 72.46875 75.179688 82.902344 69.335938 C 82.890625 69.214844 82.878906 69.089844 82.867188 68.964844 C 81.730469 68.867188 80.976562 66.898438 79.480469 68.523438 C 79.316406 68.703125 79.039062 68.652344 78.816406 68.515625 C 78.539062 68.347656 78.464844 68.089844 78.546875 67.800781 C 78.632812 67.503906 78.757812 67.21875 78.882812 66.890625 C 78.007812 66.386719 77.265625 65.722656 76.234375 65.550781 C 75.976562 66 75.773438 66.429688 75.507812 66.816406 C 75.265625 67.160156 74.910156 67.382812 74.484375 67.140625 C 74.089844 66.917969 74.175781 66.527344 74.300781 66.191406 C 74.472656 65.71875 74.703125 65.265625 74.898438 64.820312 C 73.585938 63.625 73.398438 63.617188 72.726562 64.703125 C 72.960938 65.121094 73.453125 65.503906 73.058594 66.066406 C 72.878906 66.324219 72.546875 66.40625 72.316406 66.238281 C 71.425781 65.601562 70.957031 66.246094 70.449219 66.800781 C 69.886719 67.410156 69.339844 68.035156 68.773438 68.640625 C 68.457031 68.976562 68.261719 69.242188 68.535156 69.765625 C 68.898438 70.472656 68.457031 70.800781 67.761719 70.789062 C 66.625 70.769531 65.660156 71.410156 65.394531 72.503906 C 65.292969 72.925781 65.203125 73.289062 64.75 73.378906 C 63.753906 73.570312 63.328125 74.457031 62.664062 75.046875 C 62.492188 75.199219 62.332031 75.386719 62.496094 75.664062 C 63.183594 76.851562 62.261719 76.851562 61.347656 76.957031 M 80.886719 65.839844 C 81.355469 67.074219 82.671875 67.050781 83.769531 68.019531 C 83.621094 55.695312 83.476562 43.757812 83.332031 31.816406 C 82.84375 32.257812 82.953125 32.738281 83.09375 33.222656 C 83.207031 33.621094 83.234375 34.003906 82.84375 34.292969 C 81.898438 34.980469 81.859375 35.796875 82.449219 36.753906 C 82.753906 37.246094 83.144531 37.796875 82.738281 38.398438 C 82.289062 39.066406 81.78125 38.289062 81.339844 38.296875 C 80.742188 39.402344 80.960938 40.335938 81.5625 41.265625 C 81.84375 41.703125 81.996094 42.292969 81.578125 42.699219 C 81.089844 43.171875 80.746094 42.566406 80.359375 42.363281 C 80.308594 42.335938 80.21875 42.382812 80.15625 42.394531 C 79.632812 43.078125 79.921875 43.75 80.15625 44.425781 C 80.34375 44.964844 80.550781 45.683594 79.820312 45.8125 C 78.351562 46.078125 78.863281 46.867188 79.230469 47.601562 C 79.949219 49.023438 79.769531 49.332031 78.160156 49.28125 C 77.804688 49.757812 78.078125 50.175781 78.285156 50.601562 C 78.472656 50.992188 78.542969 51.476562 78.101562 51.644531 C 76.71875 52.171875 77.222656 52.9375 77.730469 53.765625 C 77.914062 54.066406 78.046875 54.402344 78.15625 54.738281 C 78.242188 55.011719 78.21875 55.300781 77.949219 55.484375 C 77.695312 55.65625 77.441406 55.605469 77.171875 55.453125 C 76.953125 55.328125 76.941406 54.914062 76.617188 54.996094 C 75.597656 56.3125 75.761719 57.558594 76.625 58.851562 C 76.933594 59.3125 77.269531 60.007812 76.605469 60.441406 C 76.015625 60.828125 75.726562 60.175781 75.375 59.835938 C 75.328125 59.792969 75.242188 59.789062 75.171875 59.769531 C 74.105469 62.554688 74.132812 62.792969 75.570312 62.996094 C 75.640625 62.742188 75.695312 62.476562 75.785156 62.222656 C 75.953125 61.753906 76.015625 61.097656 76.726562 61.238281 C 77.4375 61.378906 77.277344 62.027344 77.222656 62.507812 C 77.019531 64.289062 77.539062 64.949219 79.410156 65.1875 C 79.707031 64.667969 79.324219 63.539062 80.3125 63.683594 C 81.316406 63.832031 81.019531 64.816406 80.949219 65.546875 C 80.945312 65.585938 80.929688 65.621094 80.886719 65.839844 M 11.96875 50.46875 C 11.96875 55.480469 11.96875 60.492188 11.96875 65.507812 C 12.339844 64.929688 12.546875 64.332031 12.808594 63.757812 C 13.023438 63.292969 13.285156 62.726562 13.933594 62.988281 C 14.503906 63.214844 14.371094 63.804688 14.226562 64.238281 C 13.933594 65.125 13.554688 65.984375 13.144531 67.027344 C 14.390625 66.492188 15.453125 66.089844 15.9375 64.828125 C 16.207031 64.117188 16.660156 63.351562 17.574219 64.265625 C 17.789062 64.476562 17.992188 64.382812 18.226562 64.300781 C 21.066406 63.300781 21.398438 62.644531 20.417969 59.917969 C 20.394531 59.855469 20.324219 59.804688 20.28125 59.753906 C 19.773438 59.972656 19.515625 60.945312 18.824219 60.390625 C 18.199219 59.886719 18.667969 59.226562 18.925781 58.660156 C 19.054688 58.375 19.238281 58.109375 19.359375 57.816406 C 19.535156 57.378906 19.691406 56.941406 19.539062 56.4375 C 18.8125 54.058594 18.078125 51.675781 17.402344 49.28125 C 17.21875 48.628906 16.484375 48.273438 16.566406 47.5 C 16.765625 45.644531 15.679688 44.097656 15.40625 42.371094 C 13.984375 42.46875 13.8125 42.246094 14.125 40.90625 C 14.335938 40.007812 14.675781 39.105469 14.195312 38.113281 C 13.855469 38.683594 13.976562 39.675781 13.085938 39.480469 C 12.140625 39.269531 12.597656 38.40625 12.613281 37.78125 C 12.617188 37.664062 12.671875 37.550781 12.691406 37.433594 C 13.011719 35.472656 13.199219 33.523438 12.125 31.425781 C 12.304688 37.851562 11.933594 44.039062 11.96875 50.46875 M 16.011719 69.082031 C 16.496094 69.351562 17.1875 69.636719 16.890625 70.273438 C 16.585938 70.929688 15.863281 70.644531 15.320312 70.460938 C 14.765625 70.273438 14.242188 70 13.703125 69.765625 C 13.683594 69.808594 13.667969 69.855469 13.652344 69.898438 C 17.59375 72.113281 21.539062 74.328125 25.703125 76.664062 C 25.140625 75.46875 25.660156 75.210938 26.496094 75.210938 C 26.96875 75.210938 27.445312 75.230469 27.917969 75.253906 C 28.371094 75.273438 28.75 75.304688 28.84375 74.65625 C 28.941406 73.96875 29.429688 73.976562 29.894531 74.339844 C 30.585938 74.882812 31.15625 75.546875 31.53125 76.34375 C 31.75 76.808594 31.558594 77.445312 31.058594 77.230469 C 29.84375 76.707031 28.78125 76.789062 27.699219 77.460938 C 27.570312 77.539062 27.359375 77.285156 27.167969 77.519531 C 32.585938 80.523438 37.988281 83.519531 43.386719 86.511719 C 42.667969 85.179688 41.742188 84.25 40.152344 84.25 C 39.640625 84.25 39 84.058594 38.851562 83.40625 C 38.695312 82.722656 39.546875 82.921875 39.765625 82.5 C 39.195312 81.375 38.457031 80.609375 37.054688 80.957031 C 36.832031 81.015625 36.578125 80.988281 36.351562 80.9375 C 35.988281 80.859375 35.660156 80.691406 35.640625 80.257812 C 35.621094 79.890625 35.859375 79.695312 36.175781 79.558594 C 36.375 79.472656 36.679688 79.574219 36.765625 79.222656 C 36.375 78.6875 36.019531 78.230469 35.167969 78.292969 C 34.042969 78.371094 33.792969 77.792969 34.410156 76.707031 C 33.589844 75.851562 32.96875 74.757812 31.703125 74.367188 C 31.347656 74.261719 31.378906 73.875 31.222656 73.628906 C 30.359375 72.273438 29.460938 70.886719 27.851562 70.339844 C 27.1875 70.117188 26.851562 69.96875 26.878906 69.179688 C 26.910156 68.1875 25.089844 66.667969 24.070312 66.707031 C 23.300781 66.734375 22.988281 66.402344 23.164062 65.613281 C 23.359375 64.742188 22.472656 63.738281 21.730469 64.078125 C 20.429688 64.671875 19.132812 65.324219 17.878906 66.300781 C 18.621094 66.625 19.207031 66.847656 19.753906 67.140625 C 20.082031 67.3125 20.300781 67.636719 20.121094 68.035156 C 19.945312 68.417969 19.578125 68.515625 19.214844 68.390625 C 18.617188 68.183594 18.039062 67.925781 17.457031 67.679688 C 15.96875 67.050781 15.414062 67.179688 14.277344 68.472656 C 14.8125 68.660156 15.328125 68.839844 16.011719 69.082031 M 59.484375 18.804688 C 60.472656 19.078125 61.460938 19.367188 62.453125 19.621094 C 62.730469 19.695312 63.082031 19.929688 63.308594 19.546875 C 64.011719 18.351562 64.632812 19.054688 65.109375 19.691406 C 65.863281 20.707031 66.875 20.957031 68.253906 21.046875 C 67.847656 20.683594 67.613281 20.484375 67.390625 20.269531 C 67.058594 19.960938 66.742188 19.574219 67.035156 19.136719 C 67.398438 18.59375 67.898438 18.902344 68.285156 19.15625 C 69.109375 19.699219 69.878906 20.328125 70.707031 20.863281 C 71.648438 21.472656 72.453125 22.339844 73.695312 22.578125 C 73.742188 22.101562 73.910156 21.726562 74.316406 21.40625 C 65.722656 16.542969 57.25 11.75 48.78125 6.957031 C 48.691406 7.03125 48.605469 7.105469 48.519531 7.179688 C 48.71875 8.164062 47.914062 9.335938 49.175781 10.121094 C 49.632812 10.40625 50.347656 10.511719 50.183594 11.226562 C 50 12.042969 49.277344 11.558594 48.789062 11.640625 C 48.71875 11.652344 48.65625 11.714844 48.589844 11.753906 C 48.378906 12.429688 48.640625 12.816406 49.320312 12.957031 C 49.550781 13.003906 49.777344 13.070312 50 13.152344 C 50.453125 13.3125 50.792969 13.597656 50.660156 14.121094 C 50.53125 14.636719 50.074219 14.546875 49.679688 14.519531 C 49.34375 14.496094 49.011719 14.210938 48.597656 14.546875 C 48.523438 15.019531 48.265625 15.707031 49.007812 15.855469 C 49.824219 16.015625 50.640625 17.011719 51.53125 16.035156 C 52.167969 15.335938 52.566406 15.835938 52.949219 16.304688 C 53.214844 16.628906 53.253906 17.125 53.765625 17.253906 C 54.832031 17.527344 55.894531 17.824219 56.929688 18.105469 C 57.292969 17.738281 57.121094 17.011719 57.808594 17.054688 C 58.359375 17.085938 58.582031 17.535156 58.824219 17.949219 C 58.980469 18.210938 58.996094 18.570312 59.484375 18.804688 M 44.632812 8.1875 C 35.488281 13.351562 26.34375 18.515625 17.199219 23.679688 C 18.3125 23.726562 19.238281 23.519531 19.988281 22.652344 C 20.964844 21.527344 21.441406 21.558594 22.632812 22.46875 C 23.460938 21.886719 24.097656 21.050781 25.019531 20.566406 C 26.148438 19.972656 26.476562 20.097656 26.726562 21.339844 C 27.746094 21.15625 28.722656 20.90625 29.484375 20.109375 C 29.8125 19.765625 30.273438 19.523438 30.78125 19.714844 C 32.148438 20.230469 33.179688 19.8125 34.035156 18.679688 C 34.363281 18.246094 34.960938 17.726562 35.421875 18.28125 C 36.300781 19.328125 37 18.539062 37.648438 18.15625 C 38.15625 17.855469 38.570312 17.828125 39.136719 17.789062 C 40.476562 17.699219 41.917969 17.585938 42.941406 16.546875 C 43.453125 16.027344 43.78125 15.761719 44.53125 16.171875 C 45.292969 16.59375 46.082031 16.125 46.757812 15.742188 C 47.132812 15.53125 47.082031 15.0625 46.789062 14.667969 C 46.269531 14.453125 45.394531 15.214844 45.160156 14.308594 C 44.910156 13.355469 45.878906 13.351562 46.445312 13.097656 C 47.210938 12.753906 47.042969 12.210938 46.84375 11.566406 C 46.605469 11.613281 46.417969 11.652344 46.226562 11.679688 C 45.808594 11.734375 45.316406 11.929688 45.128906 11.339844 C 44.960938 10.820312 45.355469 10.542969 45.726562 10.296875 C 47.152344 9.355469 47.328125 8.839844 46.75 7.035156 C 46.082031 7.398438 45.433594 7.753906 44.632812 8.1875 Z M 44.632812 8.1875 "/>
<path style=" stroke:none;fill-rule:nonzero;fill:rgb(0%,0%,0%);fill-opacity:1;" d="M 57.433594 43.824219 C 58.125 45.84375 58.179688 47.789062 57.519531 49.730469 C 56.894531 51.550781 55.613281 52.496094 53.816406 52.507812 C 51.875 52.519531 50.375 51.464844 49.785156 49.613281 C 49.089844 47.445312 49.34375 45.328125 50.210938 43.257812 C 50.851562 41.734375 52.03125 41.058594 53.65625 41.011719 C 55.265625 40.964844 56.359375 41.71875 57.089844 43.097656 C 57.199219 43.304688 57.292969 43.523438 57.433594 43.824219 M 52.179688 50.074219 C 53.558594 50.976562 54.59375 50.976562 55.34375 50.066406 C 56.53125 48.628906 56.445312 44.886719 55.191406 43.472656 C 54.363281 42.539062 52.777344 42.539062 52.058594 43.480469 C 51 44.863281 50.703125 48.746094 52.179688 50.074219 Z M 52.179688 50.074219 "/>
<path style=" stroke:none;fill-rule:nonzero;fill:rgb(0%,0%,0%);fill-opacity:1;" d="M 43.117188 45.730469 C 43.488281 45.371094 43.824219 45.085938 44.085938 44.742188 C 44.585938 44.078125 44.75 43.335938 44.054688 42.726562 C 43.339844 42.105469 42.53125 42.160156 41.78125 42.730469 C 41.289062 43.101562 41.039062 43.636719 40.808594 44.191406 C 40.613281 44.65625 40.292969 45.058594 39.726562 44.863281 C 39.109375 44.648438 39.128906 44.121094 39.25 43.574219 C 39.699219 41.566406 41.855469 40.167969 43.859375 40.597656 C 46.082031 41.070312 46.929688 43.820312 45.480469 45.835938 C 44.910156 46.621094 44.09375 47.117188 43.351562 47.703125 C 42.527344 48.351562 41.648438 48.953125 41.167969 50.046875 C 42.390625 50.046875 43.519531 50.015625 44.644531 50.058594 C 45.441406 50.089844 46.628906 49.914062 46.660156 50.976562 C 46.695312 52.167969 45.488281 51.84375 44.71875 51.859375 C 43.496094 51.882812 42.273438 51.851562 41.050781 52 C 40.351562 52.082031 39.558594 52.0625 39.101562 51.410156 C 38.613281 50.710938 39.101562 50.039062 39.398438 49.414062 C 40.179688 47.773438 41.609375 46.769531 43.117188 45.730469 Z M 43.117188 45.730469 "/>
<path style=" stroke:none;fill-rule:nonzero;fill:rgb(0%,0%,0%);fill-opacity:1;" d="M 22.863281 30.667969 C 24.863281 29.253906 26.5625 30.003906 26.890625 32.363281 C 27.023438 33.328125 27.109375 34.296875 27.246094 35.542969 C 27.867188 34.621094 28.332031 33.90625 28.820312 33.210938 C 29.09375 32.828125 29.371094 32.4375 29.703125 32.105469 C 30.027344 31.773438 30.46875 31.621094 30.886719 31.90625 C 31.332031 32.21875 31.199219 32.664062 31.011719 33.078125 C 30.964844 33.1875 30.914062 33.296875 30.84375 33.390625 C 29.796875 34.785156 28.902344 36.265625 28.160156 37.847656 C 27.929688 38.347656 27.601562 38.886719 26.957031 38.851562 C 26.261719 38.808594 26.015625 38.214844 25.820312 37.640625 C 25.46875 36.582031 25.355469 35.492188 25.3125 34.378906 C 25.277344 33.507812 25.367188 32.570312 24.71875 31.824219 C 23.1875 32.6875 22.761719 33.535156 23.039062 35.097656 C 23.125 35.574219 23.21875 36.089844 22.625 36.300781 C 22.023438 36.511719 21.636719 36.132812 21.398438 35.644531 C 20.796875 34.417969 21.054688 33.253906 21.753906 32.160156 C 22.070312 31.664062 22.449219 31.207031 22.863281 30.667969 Z M 22.863281 30.667969 "/>
<path style=" stroke:none;fill-rule:nonzero;fill:rgb(0%,0%,0%);fill-opacity:1;" d="M 32.28125 25.675781 C 31.894531 26.648438 31.066406 27.027344 30.382812 26.636719 C 30.023438 26.429688 29.832031 26.050781 30.105469 25.765625 C 30.730469 25.117188 31.480469 24.90625 32.28125 25.675781 Z M 32.28125 25.675781 "/>
<path style=" stroke:none;fill-rule:nonzero;fill:rgb(0%,0%,0%);fill-opacity:1;" d="M 21.476562 47.238281 C 22.640625 47.195312 22.859375 47.925781 22.816406 48.785156 C 22.796875 49.222656 22.382812 49.410156 22.027344 49.199219 C 21.296875 48.761719 20.785156 48.183594 21.476562 47.238281 Z M 21.476562 47.238281 "/>
<path style=" stroke:none;fill-rule:nonzero;fill:rgb(0%,0%,0%);fill-opacity:1;" d="M 23.054688 43.304688 C 24.023438 42.671875 24.480469 43.246094 24.800781 43.988281 C 24.964844 44.375 24.753906 44.757812 24.339844 44.773438 C 23.429688 44.808594 22.960938 44.320312 23.054688 43.304688 Z M 23.054688 43.304688 "/>
<path style=" stroke:none;fill-rule:nonzero;fill:rgb(0%,0%,0%);fill-opacity:1;" d="M 35.222656 21.671875 C 35.742188 21.351562 36.203125 21.273438 36.542969 21.75 C 36.742188 22.03125 36.644531 22.359375 36.378906 22.59375 C 36.054688 22.882812 35.671875 22.960938 35.296875 22.730469 C 34.878906 22.46875 34.859375 22.113281 35.222656 21.671875 Z M 35.222656 21.671875 "/>
<path style=" stroke:none;fill-rule:nonzero;fill:rgb(0%,0%,0%);fill-opacity:1;" d="M 73.417969 35.453125 C 72.5 35.835938 71.53125 35.730469 70.679688 36.261719 C 70.929688 36.894531 71.003906 37.667969 72.007812 37.191406 C 72.550781 36.933594 73.191406 36.597656 73.5625 37.3125 C 73.9375 38.035156 73.390625 38.472656 72.808594 38.8125 C 72.675781 38.890625 72.558594 39 72.386719 39.128906 C 72.582031 39.648438 72.808594 40.144531 72.941406 40.664062 C 73.042969 41.050781 73.011719 41.472656 72.5625 41.679688 C 72.085938 41.902344 71.636719 41.734375 71.445312 41.316406 C 71.023438 40.390625 70.507812 39.820312 69.390625 40.238281 C 69.132812 40.335938 68.839844 40.183594 68.695312 39.90625 C 68.507812 39.550781 68.539062 39.140625 68.835938 38.925781 C 69.769531 38.257812 69.371094 37.683594 68.867188 36.972656 C 67.867188 35.570312 68.152344 34.84375 69.789062 34.425781 C 70.78125 34.175781 71.78125 33.9375 72.78125 33.71875 C 73.300781 33.601562 73.855469 33.5625 74.089844 34.179688 C 74.308594 34.75 74.066406 35.179688 73.417969 35.453125 Z M 73.417969 35.453125 "/>
<path style=" stroke:none;fill-rule:nonzero;fill:rgb(0%,0%,0%);fill-opacity:1;" d="M 68.964844 27.683594 C 69.585938 28.035156 70.234375 28.265625 70.175781 29.070312 C 70.125 29.828125 69.433594 29.917969 68.9375 30.1875 C 68.3125 30.523438 67.679688 30.851562 67.015625 31.097656 C 66.171875 31.410156 65.46875 31.710938 66 32.832031 C 66.160156 33.175781 65.960938 33.550781 65.597656 33.71875 C 65.1875 33.902344 64.785156 33.785156 64.558594 33.410156 C 63.988281 32.464844 63.433594 31.511719 62.933594 30.53125 C 62.757812 30.183594 62.789062 29.746094 63.140625 29.445312 C 63.402344 29.21875 63.777344 29.109375 64.007812 29.34375 C 65.285156 30.636719 66.167969 29.320312 67.226562 29.050781 C 67.167969 28.835938 67.171875 28.742188 67.128906 28.695312 C 66.679688 28.234375 65.882812 27.804688 66.507812 27.0625 C 67.058594 26.414062 67.730469 26.851562 68.304688 27.242188 C 68.5 27.375 68.691406 27.507812 68.964844 27.683594 Z M 68.964844 27.683594 "/>
<path style=" stroke:none;fill-rule:nonzero;fill:rgb(0%,0%,0%);fill-opacity:1;" d="M 75.234375 47.394531 C 74.335938 47.871094 74.050781 47.503906 74.183594 46.699219 C 74.304688 45.988281 74.222656 45.148438 75.070312 44.761719 C 75.261719 44.671875 75.480469 44.6875 75.601562 44.875 C 76.078125 45.617188 75.726562 46.316406 75.464844 47.015625 C 75.421875 47.125 75.351562 47.222656 75.234375 47.394531 Z M 75.234375 47.394531 "/>
<path style=" stroke:none;fill-rule:nonzero;fill:rgb(0%,0%,0%);fill-opacity:1;" d="M 61.207031 23.105469 C 60.628906 23.113281 60.15625 23.09375 59.707031 22.90625 C 59.441406 22.796875 59.1875 22.671875 59.117188 22.375 C 59.019531 21.949219 59.222656 21.660156 59.636719 21.601562 C 60.496094 21.476562 61.351562 21.542969 61.855469 22.347656 C 62.15625 22.824219 61.773438 23.054688 61.207031 23.105469 Z M 61.207031 23.105469 "/>
<path style=" stroke:none;fill-rule:nonzero;fill:rgb(0%,0%,0%);fill-opacity:1;" d="M 62.152344 28.269531 C 61.472656 28.355469 60.828125 28.328125 60.886719 27.5625 C 60.933594 26.925781 61.5625 26.898438 62.09375 26.957031 C 62.367188 26.988281 62.636719 27.078125 62.71875 27.402344 C 62.820312 27.828125 62.59375 28.066406 62.152344 28.269531 Z M 62.152344 28.269531 "/>
<path style=" stroke:none;fill-rule:nonzero;fill:rgb(0%,0%,0%);fill-opacity:1;" d="M 70.15625 43.976562 C 70.746094 43.820312 71.140625 43.933594 71.175781 44.511719 C 71.203125 44.9375 70.941406 45.25 70.5625 45.449219 C 70.246094 45.613281 69.90625 45.617188 69.707031 45.320312 C 69.34375 44.777344 69.601562 44.355469 70.15625 43.976562 Z M 70.15625 43.976562 "/>
<path style=" stroke:none;fill-rule:nonzero;fill:rgb(0%,0%,0%);fill-opacity:1;" d="M 43.359375 71.203125 C 44.796875 69.765625 48.140625 69.214844 49.839844 70.050781 C 51.21875 70.726562 52.261719 72.574219 50.953125 73.945312 C 50.609375 74.308594 50.761719 74.628906 50.914062 75.019531 C 51.6875 76.972656 50.875 78.378906 48.800781 78.695312 C 47.644531 78.875 46.523438 78.757812 45.457031 78.242188 C 44.074219 77.570312 43.664062 76.742188 44.15625 75.289062 C 44.355469 74.707031 44.125 74.421875 43.777344 74.066406 C 42.976562 73.253906 42.703125 72.335938 43.359375 71.203125 M 49.03125 71.605469 C 47.96875 71.453125 46.90625 71.53125 45.847656 71.613281 C 45.449219 71.648438 45.085938 71.84375 44.972656 72.292969 C 44.90625 72.546875 45.023438 72.746094 45.207031 72.917969 C 45.855469 73.53125 48.433594 73.742188 49.140625 73.203125 C 49.746094 72.742188 50.160156 72.222656 49.03125 71.605469 M 48.019531 75.304688 C 47.140625 75.304688 46.222656 75.226562 45.761719 76.320312 C 46.511719 76.863281 47.292969 76.941406 48.078125 76.945312 C 48.621094 76.949219 49.351562 76.988281 49.433594 76.308594 C 49.519531 75.5625 48.820312 75.417969 48.019531 75.304688 Z M 48.019531 75.304688 "/>
<path style=" stroke:none;fill-rule:nonzero;fill:rgb(0%,0%,0%);fill-opacity:1;" d="M 53.804688 70.96875 C 53.820312 70.6875 53.820312 70.480469 53.890625 70.300781 C 54.070312 69.832031 54.351562 69.460938 54.933594 69.519531 C 55.207031 69.546875 55.351562 69.710938 55.386719 69.980469 C 55.457031 70.527344 55.339844 71.019531 54.867188 71.34375 C 54.433594 71.636719 54.046875 71.59375 53.804688 70.96875 Z M 53.804688 70.96875 "/>
<path style=" stroke:none;fill-rule:nonzero;fill:rgb(0%,0%,0%);fill-opacity:1;" d="M 33.828125 68.875 C 33.613281 68.746094 33.472656 68.667969 33.371094 68.554688 C 33.070312 68.230469 32.824219 67.867188 33.050781 67.40625 C 33.21875 67.066406 33.546875 67.046875 33.859375 67.160156 C 34.394531 67.347656 34.6875 67.757812 34.703125 68.304688 C 34.714844 68.800781 34.386719 68.976562 33.828125 68.875 Z M 33.828125 68.875 "/>
<path style=" stroke:none;fill-rule:nonzero;fill:rgb(0%,0%,0%);fill-opacity:1;" d="M 65.105469 78.167969 C 64.074219 77.867188 63.953125 77.199219 64.179688 76.371094 C 64.835938 73.96875 69.015625 72.0625 71.246094 73.160156 C 71.519531 73.296875 71.78125 73.515625 71.964844 73.761719 C 72.242188 74.128906 72.335938 74.574219 71.976562 74.957031 C 71.597656 75.363281 71.195312 75.183594 70.808594 74.925781 C 69.378906 73.980469 69 74.121094 68.414062 75.738281 C 67.871094 77.234375 66.75 77.996094 65.105469 78.167969 Z M 65.105469 78.167969 "/>
<path style=" stroke:none;fill-rule:nonzero;fill:rgb(0%,0%,0%);fill-opacity:1;" d="M 72.628906 69.496094 C 73.535156 69.175781 74.613281 69.488281 74.96875 68.183594 C 75.125 67.613281 75.859375 67.871094 76.234375 68.296875 C 76.691406 68.816406 76.992188 69.507812 76.253906 69.910156 C 74.679688 70.765625 72.902344 70.976562 71.152344 71.222656 C 70.863281 71.265625 70.640625 71.023438 70.597656 70.710938 C 70.558594 70.40625 70.734375 70.183594 70.976562 70.027344 C 71.445312 69.722656 71.980469 69.59375 72.628906 69.496094 Z M 72.628906 69.496094 "/>
<path style=" stroke:none;fill-rule:nonzero;fill:rgb(0%,0%,0%);fill-opacity:1;" d="M 80.285156 51.304688 C 81.550781 50.625 82.34375 50.882812 82.683594 52.164062 C 83.257812 54.304688 83.027344 56.464844 82.550781 58.605469 C 82.453125 59.039062 82.164062 59.316406 81.695312 59.222656 C 81.238281 59.136719 81.238281 58.730469 81.234375 58.375 C 81.222656 57.792969 81.515625 57.222656 81.347656 56.632812 C 79.445312 56.242188 78.808594 55.011719 79.414062 52.929688 C 79.582031 52.355469 79.785156 51.800781 80.285156 51.304688 M 81.140625 52.839844 C 80.71875 53.71875 80.71875 53.71875 80.976562 54.453125 C 81.402344 53.703125 81.402344 53.703125 81.140625 52.839844 Z M 81.140625 52.839844 "/>
<path style=" stroke:none;fill-rule:nonzero;fill:rgb(0%,0%,0%);fill-opacity:1;" d="M 81.199219 44.796875 C 81.539062 44.230469 81.910156 44.234375 82.3125 44.585938 C 82.714844 44.941406 82.835938 45.410156 82.636719 45.875 C 82.417969 46.390625 81.992188 46.421875 81.582031 46.066406 C 81.226562 45.757812 81.117188 45.34375 81.199219 44.796875 Z M 81.199219 44.796875 "/>
<path style=" stroke:none;fill-rule:nonzero;fill:rgb(0%,0%,0%);fill-opacity:1;" d="M 14.300781 54.511719 C 13.863281 55.429688 13.441406 54.984375 13.15625 54.539062 C 12.398438 53.371094 12.085938 52.074219 12.363281 50.695312 C 12.597656 49.546875 13.566406 49.351562 14.523438 49.222656 C 14.6875 48.539062 14.234375 48.039062 14.183594 47.464844 C 14.152344 47.121094 14.023438 46.710938 14.472656 46.539062 C 14.863281 46.386719 15.210938 46.59375 15.378906 46.921875 C 16.136719 48.410156 16.488281 50.039062 16.863281 51.648438 C 16.925781 51.925781 16.773438 52.199219 16.5 52.34375 C 16.160156 52.523438 15.898438 52.324219 15.632812 52.144531 C 15.089844 51.773438 14.765625 51.105469 13.894531 50.941406 C 13.335938 52.199219 14.527344 53.25 14.300781 54.511719 Z M 14.300781 54.511719 "/>
<path style=" stroke:none;fill-rule:nonzero;fill:rgb(0%,0%,0%);fill-opacity:1;" d="M 15.65625 58.601562 C 16.140625 58.742188 16.628906 58.839844 16.585938 59.40625 C 16.550781 59.933594 16.074219 60.082031 15.636719 60.128906 C 15.011719 60.195312 14.335938 60.273438 13.90625 59.660156 C 13.503906 59.078125 13.824219 58.535156 14.078125 57.996094 C 14.699219 56.695312 15.597656 55.511719 15.652344 53.96875 C 15.671875 53.390625 16.175781 53.257812 16.59375 53.621094 C 17.253906 54.203125 17.703125 54.953125 17.894531 55.824219 C 17.96875 56.175781 17.753906 56.558594 17.421875 56.511719 C 15.753906 56.285156 16.050781 57.738281 15.65625 58.601562 Z M 15.65625 58.601562 "/>
<path style=" stroke:none;fill-rule:nonzero;fill:rgb(0%,0%,0%);fill-opacity:1;" d="M 12.832031 45.507812 C 12.796875 45.261719 12.765625 45.101562 12.789062 44.953125 C 12.867188 44.519531 13.019531 44.09375 13.515625 44.007812 C 13.9375 43.933594 14.164062 44.238281 14.230469 44.609375 C 14.324219 45.125 14.289062 45.652344 13.808594 45.972656 C 13.375 46.257812 13.089844 45.957031 12.832031 45.507812 Z M 12.832031 45.507812 "/>
<path style=" stroke:none;fill-rule:nonzero;fill:rgb(0%,0%,0%);fill-opacity:1;" d="M 23.433594 69.273438 C 24.96875 69.488281 26.089844 70.097656 26.515625 71.589844 C 26.78125 72.515625 26.449219 73.21875 25.609375 73.65625 C 23.949219 74.523438 21.175781 73.523438 20.4375 71.800781 C 19.886719 70.511719 20.320312 69.617188 21.683594 69.347656 C 22.21875 69.242188 22.78125 69.289062 23.433594 69.273438 M 24.980469 72.203125 C 24.785156 70.78125 23.121094 70.15625 21.808594 71.011719 C 22.441406 72.316406 23.390625 72.722656 24.980469 72.203125 Z M 24.980469 72.203125 "/>
<path style=" stroke:none;fill-rule:nonzero;fill:rgb(0%,0%,0%);fill-opacity:1;" d="M 54.609375 15.441406 C 54.105469 14.789062 54.394531 14.359375 54.851562 13.960938 C 55.238281 13.625 55.636719 13.300781 55.988281 12.929688 C 56.375 12.523438 56.8125 12.183594 57.300781 12.628906 C 57.824219 13.105469 57.414062 13.546875 57.058594 13.941406 C 56.929688 14.082031 56.816406 14.234375 56.617188 14.476562 C 57.210938 14.777344 57.636719 15.128906 58.140625 14.371094 C 58.574219 13.71875 59.089844 14.082031 59.359375 14.542969 C 59.839844 15.359375 60.511719 15.648438 61.414062 15.652344 C 61.75 15.65625 62.113281 15.800781 62.417969 15.964844 C 62.75 16.144531 62.933594 16.464844 62.765625 16.863281 C 62.613281 17.210938 60.402344 17.878906 60.1875 17.597656 C 59.152344 16.234375 57.574219 16.300781 56.144531 15.957031 C 55.648438 15.839844 55.171875 15.65625 54.609375 15.441406 Z M 54.609375 15.441406 "/>
<path style=" stroke:none;fill-rule:nonzero;fill:rgb(0%,0%,0%);fill-opacity:1;" d="M 64.398438 16.597656 C 64.636719 16.632812 64.800781 16.648438 64.929688 16.722656 C 65.3125 16.941406 65.648438 17.21875 65.550781 17.726562 C 65.484375 18.085938 65.214844 18.246094 64.867188 18.214844 C 64.371094 18.164062 63.980469 17.914062 63.789062 17.445312 C 63.589844 16.964844 63.878906 16.726562 64.398438 16.597656 Z M 64.398438 16.597656 "/>
<path style=" stroke:none;fill-rule:nonzero;fill:rgb(0%,0%,0%);fill-opacity:1;" d="M 37.203125 16.640625 C 36.8125 15.832031 36.992188 15.257812 37.667969 14.835938 C 37.941406 14.664062 38.121094 14.449219 38.242188 14.125 C 38.816406 12.597656 40.335938 11.757812 41.90625 12.066406 C 42.429688 12.171875 42.890625 12.378906 43.035156 12.96875 C 43.335938 14.183594 42.34375 16.28125 41.15625 16.738281 C 39.878906 17.230469 38.550781 17.808594 37.203125 16.640625 Z M 37.203125 16.640625 "/>
<path style=" stroke:none;fill-rule:nonzero;fill:rgb(0%,0%,0%);fill-opacity:1;" d="M 33.484375 15.414062 C 34.074219 14.742188 34.777344 13.925781 35.484375 14.644531 C 36.15625 15.332031 35.144531 15.863281 34.664062 16.304688 C 33.851562 17.050781 32.984375 17.746094 32.09375 18.40625 C 31.675781 18.714844 31.089844 19.171875 30.652344 18.523438 C 30.289062 17.976562 30.816406 17.597656 31.222656 17.265625 C 31.957031 16.671875 32.835938 16.25 33.484375 15.414062 Z M 33.484375 15.414062 "/>
<path style=" stroke:none;fill-rule:nonzero;fill:rgb(0%,0%,0%);fill-opacity:1;" d="M 27.550781 19.621094 C 26.949219 19.363281 26.917969 18.957031 27.179688 18.542969 C 27.449219 18.121094 27.882812 17.898438 28.386719 17.984375 C 28.925781 18.074219 28.964844 18.472656 28.742188 18.867188 C 28.503906 19.285156 28.15625 19.601562 27.550781 19.621094 Z M 27.550781 19.621094 "/>
</g>
</svg>
